<svg width="54" height="54" viewBox="0 0 54 54" fill="none" xmlns="http://www.w3.org/2000/svg">
<path d="M52.25 43.8761L52.25 52.25H50.5L50.5 43.875L50.5 43.8738C50.4967 41.1235 49.4027 38.4868 47.4579 36.5421C45.7501 34.8342 43.5085 33.7824 41.125 33.5493V31.7925C43.9731 32.0313 46.6582 33.2696 48.6943 35.3057C50.9674 37.5788 52.2461 40.6607 52.25 43.8753C52.25 43.8756 52.25 43.8759 52.25 43.8761Z" fill="#EE4F3C" stroke="#EE4F3C" stroke-width="2"/>
<path d="M37.25 43.8761V52.25H35.5V43.875V43.8738C35.4967 41.1235 34.4027 38.4868 32.4579 36.5421C30.5132 34.5973 27.8765 33.5033 25.1262 33.5H25.125L13.875 33.5L13.8738 33.5C11.1235 33.5033 8.48681 34.5973 6.54206 36.5421C4.5973 38.4868 3.50329 41.1235 3.5 43.8738V43.875V52.25H1.75V43.8756C1.75382 40.6609 3.03255 37.5789 5.30572 35.3057C7.57888 33.0326 10.6609 31.7538 13.8756 31.75H25.1244C28.3391 31.7538 31.4211 33.0326 33.6943 35.3057C35.9676 37.579 37.2463 40.6612 37.25 43.8761Z" fill="#EE4F3C" stroke="#EE4F3C" stroke-width="2"/>
<path d="M35.5 3.54827V1.79128C38.3496 2.02699 41.0367 3.26435 43.0737 5.30133C45.3475 7.57521 46.625 10.6593 46.625 13.875C46.625 17.0907 45.3475 20.1748 43.0737 22.4487C41.0367 24.4857 38.3496 25.723 35.5 25.9587V24.2017C37.8846 23.9709 40.1277 22.9198 41.8362 21.2112C43.7819 19.2655 44.875 16.6266 44.875 13.875C44.875 11.1234 43.7819 8.48446 41.8362 6.53877C40.1277 4.83021 37.8846 3.77911 35.5 3.54827Z" fill="#EE4F3C" stroke="#EE4F3C" stroke-width="2"/>
<path d="M25.264 5.2485C23.5579 4.10848 21.552 3.5 19.5 3.5C16.7484 3.5 14.1095 4.59308 12.1638 6.53877C10.2181 8.48446 9.12501 11.1234 9.12501 13.875C9.12501 15.927 9.73349 17.9329 10.8735 19.639C12.0135 21.3452 13.6339 22.675 15.5297 23.4603C17.4255 24.2455 19.5115 24.451 21.5241 24.0506C23.5366 23.6503 25.3853 22.6622 26.8362 21.2112C28.2872 19.7603 29.2753 17.9116 29.6757 15.8991C30.076 13.8865 29.8705 11.8004 29.0853 9.90466C28.3 8.00888 26.9702 6.38852 25.264 5.2485ZM12.7637 3.79343C14.7577 2.46112 17.1019 1.75 19.5 1.75C22.7158 1.75 25.7998 3.02745 28.0737 5.30133C30.3476 7.57521 31.625 10.6593 31.625 13.875C31.625 16.2731 30.9139 18.6173 29.5816 20.6113C28.2493 22.6052 26.3556 24.1593 24.14 25.077C21.9245 25.9948 19.4866 26.2349 17.1345 25.767C14.7825 25.2992 12.622 24.1444 10.9263 22.4487C9.23063 20.753 8.07583 18.5925 7.60798 16.2405C7.14014 13.8885 7.38025 11.4505 8.29797 9.23496C9.21568 7.01941 10.7698 5.12574 12.7637 3.79343Z" fill="#EE4F3C" stroke="#EE4F3C" stroke-width="2"/>
</svg>
