<svg width="9" height="17" viewBox="0 0 9 17" fill="none" xmlns="http://www.w3.org/2000/svg">
<path d="M7.97242 0.0315318H5.47117C2.28555 -0.000343243 1.87867 1.97122 1.87867 4.10497V5.65653H0.472423C0.408863 5.64804 0.344201 5.65432 0.28346 5.67487C0.222719 5.69543 0.167534 5.72971 0.122192 5.77505C0.0768487 5.82039 0.0425685 5.87558 0.0220137 5.93632C0.00145892 5.99706 -0.00481727 6.06172 0.00367275 6.12528V8.93778C-0.00481727 9.00134 0.00145892 9.066 0.0220137 9.12674C0.0425685 9.18748 0.0768487 9.24267 0.122192 9.28801C0.167534 9.33336 0.222719 9.36763 0.28346 9.38819C0.344201 9.40874 0.408863 9.41502 0.472423 9.40653H1.87867V16.4378C1.87086 16.5015 1.87771 16.5661 1.89869 16.6267C1.91967 16.6873 1.95422 16.7423 1.99972 16.7876C2.04522 16.8328 2.10045 16.867 2.1612 16.8876C2.22195 16.9083 2.28661 16.9147 2.35024 16.9065H5.2143C5.49086 16.9384 5.71492 16.7143 5.6268 16.4378L5.62867 9.40653H7.97242C8.03598 9.41502 8.10064 9.40874 8.16138 9.38819C8.22213 9.36763 8.27731 9.33336 8.32266 9.28801C8.368 9.24267 8.40228 9.18748 8.42283 9.12674C8.44339 9.066 8.44966 9.00134 8.44117 8.93778V6.12528C8.44966 6.06172 8.44339 5.99706 8.42283 5.93632C8.40228 5.87558 8.368 5.82039 8.32266 5.77505C8.27731 5.72971 8.22213 5.69543 8.16138 5.67487C8.10064 5.65432 8.03598 5.64804 7.97242 5.65653H5.62586L5.62867 4.25028C5.71961 3.65122 5.71961 3.74872 6.27555 3.78153H7.95274C8.08305 3.75247 8.2218 3.76841 8.3193 3.67372C8.4168 3.57903 8.47305 3.44966 8.44024 3.31278V0.500282C8.44889 0.436773 8.44276 0.372124 8.42232 0.311373C8.40189 0.250623 8.3677 0.195412 8.32242 0.150044C8.27715 0.104676 8.22201 0.0703769 8.1613 0.0498204C8.10059 0.0292638 8.03595 0.0230051 7.97242 0.0315318V0.0315318ZM7.47086 2.79153L6.29524 2.74653C4.8393 2.74653 4.71742 3.53684 4.71742 4.34591L4.71367 6.12341C4.71355 6.18923 4.72641 6.25443 4.75151 6.31527C4.77662 6.37612 4.81347 6.43142 4.85997 6.47801C4.90647 6.52459 4.9617 6.56155 5.0225 6.58677C5.0833 6.61199 5.14848 6.62497 5.2143 6.62497H7.50367V8.43622H5.21617C5.08331 8.43622 4.95588 8.48893 4.86185 8.58279C4.76781 8.67665 4.71486 8.80398 4.71461 8.93684L4.71367 15.969H2.81617V8.93778C2.81617 8.66122 2.62774 8.43716 2.35024 8.43716H0.941173V6.62591H2.35024C2.41602 6.62601 2.48117 6.61314 2.54198 6.58805C2.60278 6.56295 2.65805 6.52612 2.70461 6.47966C2.79836 6.38497 2.81524 6.25747 2.81524 6.12434V4.10403C2.81524 2.00216 3.23992 1.00091 5.47024 1.00091H7.46992V2.79153H7.47086Z" fill="#5D5D61"/>
</svg>
