<svg width="15" height="16" viewBox="0 0 15 16" fill="none" xmlns="http://www.w3.org/2000/svg">
<path d="M9.98646 4.67456C9.35084 4.67456 8.88021 4.83487 8.51178 5.03737C8.45271 4.82737 8.25865 4.67362 8.0299 4.71956H5.2324C4.95584 4.67362 4.73178 4.89769 4.81709 5.18831V15.5008C4.73178 15.7633 4.95584 15.9883 5.2324 15.9696H8.0299C8.30646 15.9883 8.53053 15.7633 8.53053 15.4868L8.52959 9.25425C8.52865 9.25144 8.51834 8.95331 8.70678 8.748C8.85771 8.58487 9.1174 8.50144 9.47646 8.50144C10.0746 8.50144 10.3408 8.74612 10.4402 9.29362V15.4868C10.3418 15.7633 10.5658 15.9883 10.8424 15.9696H13.7908C14.0674 15.9883 14.2915 15.7633 14.1921 15.4868V9.0855C14.2905 5.8305 11.9721 4.67456 9.98646 4.67456V4.67456ZM13.2893 15.0321H11.343V9.29362C11.343 8.18644 10.6277 7.50019 9.4774 7.50019C8.82678 7.50019 8.32053 7.69144 7.97178 8.06831C7.48709 8.59331 7.52459 9.25894 7.62865 9.40706V15.0321H5.73303V5.67581H7.52928V5.99081C7.52854 6.08465 7.5543 6.17679 7.60358 6.25664C7.65286 6.3365 7.72368 6.40083 7.80788 6.44225C7.89209 6.48367 7.98627 6.50049 8.07961 6.49078C8.17294 6.48108 8.26165 6.44523 8.33553 6.38737L8.46678 6.28612C8.84646 5.98706 9.23928 5.67675 9.9874 5.67675C10.7618 5.67675 13.2902 5.92331 13.2902 9.08644V15.0321H13.2893Z" fill="#EE4F3C"/>
<path d="M2.00365 0C0.951772 0 0.0967712 0.855 0.0967712 1.90688C0.0967712 2.95875 0.951772 3.81375 2.00365 3.81375C3.05552 3.81375 3.91052 2.95875 3.91052 1.90688C3.91052 0.855 3.05552 0 2.00365 0ZM2.00365 2.8125C1.5049 2.8125 1.09802 2.40563 1.09802 1.90688C1.09802 1.40813 1.5049 1.00125 2.00365 1.00125C2.5024 1.00125 2.90927 1.40813 2.90927 1.90688C2.90927 2.40563 2.5024 2.8125 2.00365 2.8125Z" fill="#EE4F3C"/>
<path d="M3.34239 4.6731H0.559887C0.283325 4.6731 0.0592622 4.89716 0.128637 5.18778V15.5003C0.0592622 15.7628 0.283325 15.9878 0.559887 15.969H3.34239C3.61895 15.9878 3.84301 15.7628 3.84301 15.4862V5.17372C3.84301 5.04095 3.79027 4.91361 3.69638 4.81972C3.6025 4.72584 3.47516 4.6731 3.34239 4.6731ZM2.94114 15.0315H1.06051V5.67528H2.94114V15.0315Z" fill="#EE4F3C"/>
</svg>
