<svg width="60" height="49" viewBox="0 0 60 49" fill="none" xmlns="http://www.w3.org/2000/svg">
<path d="M24.375 0C22.8832 0 21.4524 0.592632 20.3975 1.64752C19.3426 2.70242 18.75 4.13316 18.75 5.625V7.5H5.625C4.13316 7.5 2.70242 8.09263 1.64752 9.14752C0.592632 10.2024 0 11.6332 0 13.125L0 43.125C0 44.6168 0.592632 46.0476 1.64752 47.1025C2.70242 48.1574 4.13316 48.75 5.625 48.75H54.375C55.8668 48.75 57.2976 48.1574 58.3525 47.1025C59.4074 46.0476 60 44.6168 60 43.125V13.125C60 11.6332 59.4074 10.2024 58.3525 9.14752C57.2976 8.09263 55.8668 7.5 54.375 7.5H41.25V5.625C41.25 4.13316 40.6574 2.70242 39.6025 1.64752C38.5476 0.592632 37.1168 0 35.625 0H24.375ZM24.375 3.75H35.625C36.1223 3.75 36.5992 3.94754 36.9508 4.29918C37.3025 4.65081 37.5 5.12772 37.5 5.625V7.5H22.5V5.625C22.5 5.12772 22.6975 4.65081 23.0492 4.29918C23.4008 3.94754 23.8777 3.75 24.375 3.75V3.75ZM31.4475 29.6775L56.25 23.0663V43.125C56.25 43.6223 56.0525 44.0992 55.7008 44.4508C55.3492 44.8025 54.8723 45 54.375 45H5.625C5.12772 45 4.65081 44.8025 4.29917 44.4508C3.94754 44.0992 3.75 43.6223 3.75 43.125V23.0625L28.5525 29.6775C29.501 29.9301 30.499 29.9301 31.4475 29.6775V29.6775ZM5.625 11.25H54.375C54.8723 11.25 55.3492 11.4475 55.7008 11.7992C56.0525 12.1508 56.25 12.6277 56.25 13.125V19.185L30.4837 26.055C30.1668 26.1396 29.8332 26.1396 29.5162 26.055L3.75 19.185V13.125C3.75 12.6277 3.94754 12.1508 4.29917 11.7992C4.65081 11.4475 5.12772 11.25 5.625 11.25V11.25Z" fill="white"/>
</svg>
