<svg width="48" height="48" viewBox="0 0 48 48" fill="none" xmlns="http://www.w3.org/2000/svg">
<path d="M21.0001 5.99943C18.7111 5.99943 16.5751 6.63843 14.7541 7.75143C14.5658 6.74466 14.2228 5.77314 13.7371 4.87143C16.0209 3.60753 18.5951 2.9615 21.2052 2.99719C23.8152 3.03288 26.3707 3.74906 28.6192 5.07493C30.8677 6.4008 32.7312 8.29048 34.0257 10.5572C35.3201 12.8239 36.0007 15.3891 36.0001 17.9994H43.5031C44.696 18.0002 45.8398 18.4747 46.6831 19.3185C47.5264 20.1623 48.0001 21.3065 48.0001 22.4994V40.4994C48.0001 41.6929 47.5259 42.8375 46.682 43.6814C45.8381 44.5253 44.6935 44.9994 43.5001 44.9994H25.5001C24.3066 44.9994 23.162 44.5253 22.3181 43.6814C21.4742 42.8375 21.0001 41.6929 21.0001 40.4994V32.9994C18.9132 33.0021 16.8489 32.5678 14.9401 31.7244C14.9791 30.7044 15.0001 29.6334 15.0001 28.4994V28.3944C16.7641 29.4144 18.8131 29.9994 21.0001 29.9994V22.4994C21.0001 21.306 21.4742 20.1614 22.3181 19.3174C23.162 18.4735 24.3066 17.9994 25.5001 17.9994H33.0001C33.0001 14.8168 31.7358 11.7646 29.4853 9.51415C27.2349 7.26371 24.1827 5.99943 21.0001 5.99943ZM35.7001 20.9994C35.11 23.8811 33.6866 26.5261 31.6067 28.606C29.5267 30.686 26.8818 32.1093 24.0001 32.6994V40.4994C24.0001 40.8973 24.1581 41.2788 24.4394 41.5601C24.7207 41.8414 25.1022 41.9994 25.5001 41.9994H43.5001C43.8979 41.9994 44.2794 41.8414 44.5607 41.5601C44.842 41.2788 45.0001 40.8973 45.0001 40.4994V22.4994C45.0001 22.1016 44.842 21.7201 44.5607 21.4388C44.2794 21.1575 43.8979 20.9994 43.5001 20.9994H35.7001ZM32.6221 20.9994H25.5001C25.1022 20.9994 24.7207 21.1575 24.4394 21.4388C24.1581 21.7201 24.0001 22.1016 24.0001 22.4994V29.6214C26.0755 29.0837 27.9694 28.0008 29.4854 26.4847C31.0014 24.9687 32.0844 23.0749 32.6221 20.9994V20.9994Z" fill="white"/>
<path d="M7.74 0.37488C7.98951 0.592307 8.16011 0.886147 8.22522 1.21063C8.29034 1.53512 8.24631 1.87202 8.1 2.16888C8.0746 2.25665 8.06148 2.34751 8.061 2.43888C8.061 2.62788 8.109 2.98788 8.562 3.43788C8.781 3.65688 8.949 3.81288 9.132 3.98388C9.282 4.12188 9.441 4.26588 9.642 4.46388C10.032 4.83588 10.443 5.27388 10.812 5.82288C11.577 6.97188 12 8.40888 12 10.4999C12 13.0589 11.052 15.2399 9.573 16.5779L9.765 16.7999C10.605 17.8319 11.094 19.1699 11.4 20.4899C12 23.0999 12 26.2379 12 28.4249V28.4999C12 36.8609 10.863 41.6039 9.612 44.3159C8.982 45.6809 8.313 46.5509 7.734 47.0969C7.4986 47.3227 7.23904 47.5219 6.96 47.6909C6.83224 47.7678 6.69886 47.835 6.561 47.8919C6.561 47.8919 6.222 47.9999 6 47.9999C5.778 47.9999 5.439 47.8919 5.439 47.8919C5.29964 47.8383 5.16598 47.771 5.04 47.6909C4.76096 47.5219 4.5014 47.3227 4.266 47.0969C3.687 46.5479 3.018 45.6809 2.388 44.3159C1.137 41.6039 0 36.8609 0 28.4999V28.4249C0 26.2349 1.3411e-07 23.0999 0.6 20.4899C0.906 19.1699 1.395 17.8319 2.235 16.7999C2.295 16.7249 2.361 16.6499 2.427 16.5779C0.948 15.2399 0 13.0589 0 10.4999C0 9.52188 0.261 8.35488 0.621 7.27788C0.981 6.19788 1.485 5.08188 2.067 4.18188C2.76 3.01188 3.735 2.03088 4.491 1.37088C4.90547 1.00637 5.33802 0.662935 5.787 0.34188L5.877 0.28188L5.904 0.260879L5.913 0.25488L5.919 0.25188C6.19409 0.06851 6.52205 -0.0188432 6.8519 0.00340017C7.18176 0.0256436 7.49502 0.156237 7.743 0.37488H7.74ZM6.009 14.9999C7.158 14.9969 9 13.7099 9 10.4999C9 8.84088 8.673 8.02788 8.313 7.48788C8.09412 7.17248 7.84164 6.88178 7.56 6.62088L7.188 6.27288C6.945 6.04488 6.66 5.78088 6.438 5.56188C6.10989 5.23718 5.82822 4.8687 5.601 4.46688C5.21913 4.8684 4.88307 5.31112 4.599 5.78688C4.179 6.43188 3.771 7.31688 3.468 8.22888C3.156 9.15888 3 9.98088 3 10.4999C3 13.7159 4.845 14.9999 6 14.9999H6.006H6.009ZM4.56 18.6959C4.137 19.2149 3.78 20.0429 3.525 21.1649C3.006 23.4089 3 26.2289 3 28.4999C3 36.6389 4.113 40.8959 5.112 43.0589C5.442 43.7699 5.751 44.2439 6 44.5589C6.249 44.2439 6.561 43.7699 6.888 43.0589C7.887 40.8959 9 36.6389 9 28.4999C9 26.2289 8.994 23.4089 8.475 21.1649C8.217 20.0429 7.863 19.2149 7.44 18.6959C7.27453 18.4717 7.05694 18.2911 6.80604 18.1699C6.55515 18.0486 6.2785 17.9903 6 17.9999H5.994C5.71646 17.991 5.44092 18.0497 5.19111 18.1709C4.9413 18.2922 4.72471 18.4723 4.56 18.6959V18.6959Z" fill="white"/>
</svg>
