<svg width="54" height="47" viewBox="0 0 54 47" fill="none" xmlns="http://www.w3.org/2000/svg">
<path d="M50 15H36.6667C35.7827 15 34.9348 15.3512 34.3097 15.9763C33.6846 16.6014 33.3334 17.4493 33.3334 18.3333V43.3333C33.3334 44.2174 33.6846 45.0652 34.3097 45.6904C34.9348 46.3155 35.7827 46.6667 36.6667 46.6667H50C50.8841 46.6667 51.7319 46.3155 52.3571 45.6904C52.9822 45.0652 53.3334 44.2174 53.3334 43.3333V18.3333C53.3334 17.4493 52.9822 16.6014 52.3571 15.9763C51.7319 15.3512 50.8841 15 50 15ZM50 18.3333V36.6667H36.6667V18.3333H50ZM36.6667 43.3333V39.3333H50V43.3333H36.6667Z" fill="#EE4F3C"/>
<path d="M30 30H3.33333V3.33333H43.3333V11.6667H46.6667V3.33333C46.6667 2.44928 46.3155 1.60143 45.6904 0.976311C45.0652 0.351189 44.2174 0 43.3333 0H3.33333C2.44928 0 1.60143 0.351189 0.976311 0.976311C0.351189 1.60143 0 2.44928 0 3.33333V30C0 30.8841 0.351189 31.7319 0.976311 32.357C1.60143 32.9821 2.44928 33.3333 3.33333 33.3333H30V30Z" fill="#EE4F3C"/>
<path d="M30 36.6666H11.6667C11.2246 36.6666 10.8007 36.8422 10.4882 37.1548C10.1756 37.4673 10 37.8913 10 38.3333C10 38.7753 10.1756 39.1992 10.4882 39.5118C10.8007 39.8244 11.2246 40 11.6667 40H30V36.6666Z" fill="#EE4F3C"/>
</svg>
