<svg width="54" height="48" viewBox="0 0 54 48" fill="none" xmlns="http://www.w3.org/2000/svg">
<path d="M50.3333 15.6667H37C36.1159 15.6667 35.2681 16.0179 34.643 16.6431C34.0178 17.2682 33.6667 18.116 33.6667 19.0001V44.0001C33.6667 44.8841 34.0178 45.732 34.643 46.3571C35.2681 46.9822 36.1159 47.3334 37 47.3334H50.3333C51.2174 47.3334 52.0652 46.9822 52.6904 46.3571C53.3155 45.732 53.6667 44.8841 53.6667 44.0001V19.0001C53.6667 18.116 53.3155 17.2682 52.6904 16.6431C52.0652 16.0179 51.2174 15.6667 50.3333 15.6667ZM50.3333 19.0001V37.3334H37V19.0001H50.3333ZM37 44.0001V40.0001H50.3333V44.0001H37Z" fill="white"/>
<path d="M30.3333 30.6667H3.66666V4.00008H43.6667V12.3334H47V4.00008C47 3.11603 46.6488 2.26818 46.0237 1.64306C45.3986 1.01794 44.5507 0.666748 43.6667 0.666748H3.66666C2.78261 0.666748 1.93476 1.01794 1.30964 1.64306C0.684518 2.26818 0.333328 3.11603 0.333328 4.00008V30.6667C0.333328 31.5508 0.684518 32.3986 1.30964 33.0238C1.93476 33.6489 2.78261 34.0001 3.66666 34.0001H30.3333V30.6667Z" fill="white"/>
<path d="M30.3333 37.3334H12C11.558 37.3334 11.1341 37.509 10.8215 37.8215C10.5089 38.1341 10.3333 38.558 10.3333 39C10.3333 39.4421 10.5089 39.866 10.8215 40.1786C11.1341 40.4911 11.558 40.6667 12 40.6667H30.3333V37.3334Z" fill="white"/>
</svg>
