<svg width="53" height="53" viewBox="0 0 53 53" fill="none" xmlns="http://www.w3.org/2000/svg">
<path d="M51.5 43.1261L51.5 51.5H49.75L49.75 43.125L49.75 43.1238C49.7467 40.3735 48.6527 37.7368 46.7079 35.7921C45.0001 34.0842 42.7585 33.0324 40.375 32.7993V31.0425C43.2231 31.2813 45.9082 32.5196 47.9443 34.5557C50.2174 36.8288 51.4961 39.9107 51.5 43.1253C51.5 43.1256 51.5 43.1259 51.5 43.1261Z" fill="white" stroke="white" stroke-width="2"/>
<path d="M36.5 43.1261V51.5H34.75V43.125V43.1238C34.7467 40.3735 33.6527 37.7368 31.7079 35.7921C29.7632 33.8473 27.1265 32.7533 24.3762 32.75H24.375L13.125 32.75L13.1238 32.75C10.3735 32.7533 7.73681 33.8473 5.79206 35.7921C3.8473 37.7368 2.7533 40.3735 2.75 43.1238V43.125V51.5H1V43.1256C1.00382 39.9109 2.28255 36.8289 4.55572 34.5557C6.82888 32.2826 9.91085 31.0038 13.1256 31H24.3744C27.5891 31.0038 30.6711 32.2826 32.9443 34.5557C35.2176 36.829 36.4963 39.9112 36.5 43.1261Z" fill="white" stroke="white" stroke-width="2"/>
<path d="M34.75 2.79827V1.04128C37.5996 1.27699 40.2867 2.51435 42.3237 4.55133C44.5975 6.82521 45.875 9.90925 45.875 13.125C45.875 16.3407 44.5975 19.4248 42.3237 21.6987C40.2867 23.7357 37.5996 24.973 34.75 25.2087V23.4517C37.1346 23.2209 39.3777 22.1698 41.0862 20.4612C43.0319 18.5155 44.125 15.8766 44.125 13.125C44.125 10.3734 43.0319 7.73446 41.0862 5.78877C39.3777 4.08021 37.1346 3.02911 34.75 2.79827Z" fill="white" stroke="white" stroke-width="2"/>
<path d="M24.514 4.4985C22.8079 3.35848 20.802 2.75 18.75 2.75C15.9984 2.75 13.3595 3.84308 11.4138 5.78877C9.46808 7.73446 8.37501 10.3734 8.37501 13.125C8.37501 15.177 8.98349 17.1829 10.1235 18.889C11.2635 20.5952 12.8839 21.925 14.7797 22.7103C16.6755 23.4955 18.7615 23.701 20.7741 23.3006C22.7866 22.9003 24.6353 21.9122 26.0862 20.4612C27.5372 19.0103 28.5253 17.1616 28.9257 15.1491C29.326 13.1365 29.1205 11.0504 28.3353 9.15466C27.55 7.25888 26.2202 5.63852 24.514 4.4985ZM12.0137 3.04343C14.0077 1.71112 16.3519 1 18.75 1C21.9658 1 25.0498 2.27745 27.3237 4.55133C29.5976 6.82521 30.875 9.90925 30.875 13.125C30.875 15.5231 30.1639 17.8673 28.8316 19.8613C27.4993 21.8552 25.6056 23.4093 23.39 24.327C21.1745 25.2448 18.7366 25.4849 16.3845 25.017C14.0325 24.5492 11.872 23.3944 10.1763 21.6987C8.48062 20.003 7.32583 17.8425 6.85798 15.4905C6.39014 13.1385 6.63025 10.7005 7.54797 8.48496C8.46568 6.26941 10.0198 4.37574 12.0137 3.04343Z" fill="white" stroke="white" stroke-width="2"/>
</svg>
