<svg width="36" height="36" viewBox="0 0 36 36" fill="none" xmlns="http://www.w3.org/2000/svg">
<path fill-rule="evenodd" clip-rule="evenodd" d="M8.25242 22.9124C8.2528 23.3928 8.15843 23.8686 7.97471 24.3126C7.79099 24.7565 7.52152 25.1598 7.18173 25.4995C6.84194 25.8391 6.4385 26.1084 5.99451 26.292C5.55051 26.4755 5.07468 26.5697 4.59424 26.5691C4.11405 26.5693 3.63852 26.4749 3.19486 26.2911C2.7512 26.1074 2.34811 25.8381 2.00863 25.4984C1.66915 25.1588 1.39994 24.7556 1.2164 24.3119C1.03286 23.8682 0.938584 23.3926 0.938966 22.9124C0.938583 22.4321 1.03291 21.9564 1.21654 21.5126C1.40017 21.0688 1.66951 20.6655 2.00914 20.3259C2.34878 19.9862 2.75204 19.7169 3.19587 19.5333C3.6397 19.3496 4.11538 19.2553 4.59569 19.2557L8.25388 19.2557V22.9124H8.25242ZM10.0808 22.9124C10.0804 22.4321 10.1747 21.9564 10.3584 21.5126C10.542 21.0688 10.8113 20.6655 11.151 20.3259C11.4906 19.9862 11.8939 19.7169 12.3377 19.5333C12.7815 19.3496 13.2572 19.2553 13.7375 19.2557C14.2178 19.2553 14.6935 19.3496 15.1373 19.5333C15.5812 19.7169 15.9844 19.9862 16.3241 20.3259C16.6637 20.6655 16.933 21.0688 17.1167 21.5126C17.3003 21.9564 17.3946 22.4321 17.3942 22.9124V32.0557C17.3946 32.536 17.3003 33.0117 17.1167 33.4555C16.933 33.8993 16.6637 34.3026 16.3241 34.6422C15.9844 34.9819 15.5812 35.2512 15.1373 35.4348C14.6935 35.6185 14.2178 35.7128 13.7375 35.7124C13.2572 35.7128 12.7815 35.6185 12.3377 35.4348C11.8939 35.2512 11.4906 34.9819 11.151 34.6422C10.8113 34.3026 10.542 33.8993 10.3584 33.4555C10.1747 33.0117 10.0804 32.536 10.0808 32.0557V22.9124Z" fill="#E01E5A"/>
<path fill-rule="evenodd" clip-rule="evenodd" d="M13.7375 8.22873C13.2571 8.22911 12.7813 8.13474 12.3374 7.95102C11.8935 7.76729 11.4901 7.49783 11.1505 7.15804C10.8108 6.81825 10.5415 6.41481 10.358 5.97081C10.1744 5.52682 10.0802 5.05098 10.0808 4.57055C10.0804 4.09023 10.1748 3.61455 10.3584 3.17073C10.542 2.7269 10.8114 2.32363 11.151 1.984C11.4906 1.64436 11.8939 1.37502 12.3377 1.19139C12.7816 1.00776 13.2572 0.913437 13.7375 0.91382C14.2179 0.913437 14.6935 1.00776 15.1374 1.19139C15.5812 1.37502 15.9845 1.64436 16.3241 1.984C16.6637 2.32363 16.9331 2.7269 17.1167 3.17073C17.3003 3.61455 17.3947 4.09023 17.3943 4.57055V8.23018H13.739L13.7375 8.22873ZM13.7375 10.0847C14.2179 10.0843 14.6935 10.1787 15.1374 10.3623C15.5812 10.5459 15.9845 10.8153 16.3241 11.1549C16.6637 11.4945 16.9331 11.8978 17.1167 12.3416C17.3003 12.7855 17.3947 13.2611 17.3943 13.7415C17.3947 14.2218 17.3003 14.6974 17.1167 15.1413C16.9331 15.5851 16.6637 15.9884 16.3241 16.328C15.9845 16.6676 15.5812 16.937 15.1374 17.1206C14.6935 17.3042 14.2179 17.3986 13.7375 17.3982H4.56664C4.08645 17.3986 3.61089 17.3043 3.16716 17.1207C2.72342 16.9372 2.32022 16.668 1.98061 16.3285C1.64099 15.989 1.37162 15.5859 1.1879 15.1423C1.00419 14.6986 0.909722 14.2231 0.909913 13.7429C0.909531 13.2626 1.00385 12.7869 1.18749 12.3431C1.37112 11.8993 1.64046 11.496 1.98009 11.1564C2.31973 10.8167 2.72299 10.5474 3.16682 10.3638C3.61065 10.1801 4.08632 10.0858 4.56664 10.0862H13.739L13.7375 10.0847Z" fill="#36C5F0"/>
<path fill-rule="evenodd" clip-rule="evenodd" d="M28.3935 13.7415C28.3931 13.261 28.4875 12.7852 28.6712 12.3413C28.855 11.8974 29.1244 11.494 29.4642 11.1544C29.804 10.8147 30.2074 10.5454 30.6514 10.3619C31.0954 10.1783 31.5713 10.0842 32.0517 10.0847C32.532 10.0843 33.0077 10.1787 33.4515 10.3623C33.8953 10.5459 34.2986 10.8153 34.6382 11.1549C34.9779 11.4945 35.2472 11.8978 35.4309 12.3416C35.6145 12.7855 35.7088 13.2611 35.7084 13.7415C35.7088 14.2218 35.6145 14.6974 35.4309 15.1413C35.2472 15.5851 34.9779 15.9884 34.6382 16.328C34.2986 16.6676 33.8953 16.937 33.4515 17.1206C33.0077 17.3042 32.532 17.3986 32.0517 17.3982H28.3935V13.7429V13.7415ZM26.5652 13.7415C26.5655 14.2218 26.4712 14.6974 26.2876 15.1413C26.1039 15.5851 25.8346 15.9884 25.495 16.328C25.1553 16.6676 24.7521 16.937 24.3082 17.1206C23.8644 17.3042 23.3887 17.3986 22.9084 17.3982C22.428 17.3988 21.9522 17.3046 21.5082 17.121C21.0642 16.9375 20.6607 16.6682 20.3209 16.3285C19.9811 15.9889 19.7117 15.5855 19.528 15.1416C19.3442 14.6977 19.2499 14.2219 19.2502 13.7415V4.57055C19.2499 4.09011 19.3442 3.61431 19.528 3.17039C19.7117 2.72647 19.9811 2.32314 20.3209 1.98348C20.6607 1.64383 21.0642 1.37452 21.5082 1.19098C21.9522 1.00743 22.428 0.913247 22.9084 0.913821C23.3887 0.913438 23.8644 1.00776 24.3082 1.19139C24.7521 1.37503 25.1553 1.64436 25.495 1.984C25.8346 2.32363 26.1039 2.7269 26.2876 3.17073C26.4712 3.61455 26.5655 4.09023 26.5652 4.57055V13.7429V13.7415Z" fill="#2EB67D"/>
<path fill-rule="evenodd" clip-rule="evenodd" d="M22.9084 28.3975C23.3888 28.3971 23.8644 28.4914 24.3083 28.6751C24.7521 28.8587 25.1554 29.128 25.495 29.4677C25.8346 29.8073 26.104 30.2106 26.2876 30.6544C26.4712 31.0982 26.5656 31.5739 26.5652 32.0542C26.5657 32.5347 26.4716 33.0105 26.288 33.4545C26.1045 33.8985 25.8352 34.3019 25.4955 34.6417C25.1559 34.9815 24.7525 35.251 24.3086 35.4347C23.8647 35.6184 23.3889 35.7128 22.9084 35.7124C22.428 35.7128 21.9522 35.6184 21.5083 35.4347C21.0644 35.251 20.661 34.9815 20.3214 34.6417C19.9817 34.3019 19.7124 33.8985 19.5289 33.4545C19.3453 33.0105 19.2511 32.5347 19.2517 32.0542V28.3975H22.9084V28.3975ZM22.9084 26.5691C22.4281 26.5695 21.9524 26.4752 21.5086 26.2916C21.0648 26.1079 20.6615 25.8386 20.3219 25.499C19.9823 25.1593 19.7129 24.7561 19.5293 24.3122C19.3457 23.8684 19.2513 23.3927 19.2517 22.9124C19.2513 22.4321 19.3457 21.9564 19.5293 21.5126C19.7129 21.0688 19.9823 20.6655 20.3219 20.3259C20.6615 19.9862 21.0648 19.7169 21.5086 19.5333C21.9524 19.3496 22.4281 19.2553 22.9084 19.2557H32.0794C32.5597 19.2553 33.0353 19.3496 33.4792 19.5333C33.923 19.7169 34.3263 19.9862 34.6659 20.3259C35.0055 20.6655 35.2749 21.0688 35.4585 21.5126C35.6421 21.9564 35.7365 22.4321 35.7361 22.9124C35.7365 23.3927 35.6421 23.8684 35.4585 24.3122C35.2749 24.7561 35.0055 25.1593 34.6659 25.499C34.3263 25.8386 33.923 26.1079 33.4792 26.2916C33.0353 26.4752 32.5597 26.5695 32.0794 26.5691H22.9084V26.5691Z" fill="#ECB22E"/>
</svg>
