<svg width="140" height="140" viewBox="0 0 140 140" fill="none" xmlns="http://www.w3.org/2000/svg">
<g filter="url(#filter0_d_103_7)">
<circle cx="69.9999" cy="66" r="20" fill="white"/>
</g>
<path d="M67.2759 68.8731V74.1291H68.2959V75.1491H67.2759V77.2731H66.0879V75.1491H61.3239V74.1891L65.9439 68.8731H67.2759ZM62.7399 74.1291H66.0879V70.2771L62.7399 74.1291ZM70.0945 75.8451C70.3025 75.8451 70.4785 75.9211 70.6225 76.0731C70.7745 76.2171 70.8505 76.3931 70.8505 76.6011C70.8505 76.8091 70.7745 76.9891 70.6225 77.1411C70.4785 77.2931 70.3025 77.3691 70.0945 77.3691C69.8865 77.3691 69.7065 77.2931 69.5545 77.1411C69.4025 76.9891 69.3265 76.8091 69.3265 76.6011C69.3265 76.3931 69.4025 76.2171 69.5545 76.0731C69.7065 75.9211 69.8865 75.8451 70.0945 75.8451ZM72.326 73.1211L72.53 68.8731H77.654V69.8931H73.514L73.406 72.3171C73.678 72.2211 73.95 72.1491 74.222 72.1011C74.494 72.0531 74.778 72.0291 75.074 72.0291C75.978 72.0291 76.71 72.2691 77.27 72.7491C77.83 73.2211 78.11 73.8371 78.11 74.5971C78.11 75.4291 77.814 76.1051 77.222 76.6251C76.63 77.1371 75.858 77.3931 74.906 77.3931C74.322 77.3931 73.77 77.2971 73.25 77.1051C72.73 76.9131 72.266 76.6331 71.858 76.2651L72.59 75.4491C72.966 75.7771 73.338 76.0171 73.706 76.1691C74.074 76.3131 74.482 76.3851 74.93 76.3851C75.514 76.3851 75.986 76.2251 76.346 75.9051C76.714 75.5851 76.898 75.1691 76.898 74.6571C76.898 74.1691 76.702 73.7731 76.31 73.4691C75.926 73.1571 75.43 73.0011 74.822 73.0011C74.526 73.0011 74.23 73.0331 73.934 73.0971C73.646 73.1531 73.358 73.2411 73.07 73.3611L72.326 73.1211Z" fill="#333333"/>
<path d="M75.8322 55.844L72.6764 55.3853L71.2657 52.5254C71.2272 52.4471 71.1638 52.3837 71.0855 52.3452C70.8891 52.2483 70.6505 52.3291 70.5523 52.5254L69.1416 55.3853L65.9859 55.844C65.8989 55.8564 65.8194 55.8974 65.7585 55.9596C65.6848 56.0352 65.6443 56.1371 65.6457 56.2426C65.6471 56.3482 65.6903 56.4489 65.7659 56.5226L68.0491 58.7486L67.5097 61.8919C67.4971 61.965 67.5052 62.0402 67.5331 62.109C67.561 62.1777 67.6076 62.2373 67.6676 62.2809C67.7277 62.3245 67.7987 62.3504 67.8728 62.3557C67.9468 62.361 68.0208 62.3454 68.0864 62.3108L70.909 60.8268L73.7317 62.3108C73.8087 62.3518 73.8982 62.3655 73.984 62.3505C74.2002 62.3133 74.3456 62.1082 74.3084 61.8919L73.7689 58.7486L76.0521 56.5226C76.1143 56.4617 76.1553 56.3822 76.1677 56.2951C76.2013 56.0776 76.0497 55.8763 75.8322 55.844V55.844Z" fill="#FF993B"/>
<defs>
<filter id="filter0_d_103_7" x="-0.00012207" y="0" width="140" height="140" filterUnits="userSpaceOnUse" color-interpolation-filters="sRGB">
<feFlood flood-opacity="0" result="BackgroundImageFix"/>
<feColorMatrix in="SourceAlpha" type="matrix" values="0 0 0 0 0 0 0 0 0 0 0 0 0 0 0 0 0 0 127 0" result="hardAlpha"/>
<feOffset dy="4"/>
<feGaussianBlur stdDeviation="25"/>
<feComposite in2="hardAlpha" operator="out"/>
<feColorMatrix type="matrix" values="0 0 0 0 0.6 0 0 0 0 0.6 0 0 0 0 0.6 0 0 0 0.25 0"/>
<feBlend mode="normal" in2="BackgroundImageFix" result="effect1_dropShadow_103_7"/>
<feBlend mode="normal" in="SourceGraphic" in2="effect1_dropShadow_103_7" result="shape"/>
</filter>
</defs>
</svg>
