<svg width="29" height="41" viewBox="0 0 29 41" fill="none" xmlns="http://www.w3.org/2000/svg">
<path d="M13.7162 36.2343V21.6309C14.1412 21.6693 14.5495 21.6893 14.9795 21.6893C17.0179 21.6893 18.9362 21.1559 20.5629 20.2009V36.2309C20.5629 37.6009 20.2379 38.6126 19.6045 39.2876C18.9745 39.9593 18.1379 40.2959 17.1195 40.2959C16.1195 40.2959 15.3245 39.9593 14.6729 39.2659C14.0429 38.5943 13.7162 37.5826 13.7162 36.2343ZM13.7545 1.23927C17.9962 -0.249066 22.8245 -0.169066 26.4529 2.88427C27.1279 3.49927 27.8979 4.2726 28.2045 5.18427C28.5712 6.3376 26.9212 5.0626 26.6945 4.90593C25.5112 4.15093 24.3312 3.5176 23.0079 3.0826C15.8729 0.940934 9.12619 4.81093 4.93119 10.8209C3.17786 13.4776 2.03619 16.2743 1.09786 19.3493C0.997857 19.6859 0.91619 20.1243 0.73119 20.4193C0.544524 20.7576 0.65119 19.5093 0.65119 19.4693C0.79119 18.1976 1.05786 16.9693 1.38619 15.7409C3.32286 9.19093 7.60119 3.73927 13.7562 1.23927H13.7545ZM21.9679 13.0043C21.9679 13.6653 21.8377 14.3198 21.5847 14.9304C21.3318 15.5411 20.961 16.096 20.4936 16.5634C20.0262 17.0308 19.4714 17.4015 18.8607 17.6545C18.25 17.9074 17.5955 18.0376 16.9345 18.0376C16.2735 18.0376 15.619 17.9074 15.0083 17.6545C14.3977 17.4015 13.8428 17.0308 13.3754 16.5634C12.908 16.096 12.5373 15.5411 12.2843 14.9304C12.0314 14.3198 11.9012 13.6653 11.9012 13.0043C11.9012 12.3433 12.0314 11.6888 12.2843 11.0781C12.5373 10.4674 12.908 9.91255 13.3754 9.44516C13.8428 8.97778 14.3977 8.60702 15.0083 8.35407C15.619 8.10112 16.2735 7.97093 16.9345 7.97093C17.5955 7.97093 18.25 8.10112 18.8607 8.35407C19.4714 8.60702 20.0262 8.97778 20.4936 9.44516C20.961 9.91255 21.3318 10.4674 21.5847 11.0781C21.8377 11.6888 21.9679 12.3433 21.9679 13.0043Z" fill="#095CF3"/>
</svg>
