<svg width="37" height="37" viewBox="0 0 37 37" fill="none" xmlns="http://www.w3.org/2000/svg">
<path d="M33.3963 15.5643H32.1753V15.5014H18.5329V21.5646H27.0996C25.8498 25.0942 22.4915 27.6279 18.5329 27.6279C13.5103 27.6279 9.43803 23.5557 9.43803 18.533C9.43803 13.5103 13.5103 9.43809 18.5329 9.43809C20.8514 9.43809 22.9607 10.3127 24.5667 11.7414L28.8542 7.45389C26.1469 4.93081 22.5256 3.37482 18.5329 3.37482C10.1618 3.37482 3.37476 10.1619 3.37476 18.533C3.37476 26.9041 10.1618 33.6912 18.5329 33.6912C26.9041 33.6912 33.6911 26.9041 33.6911 18.533C33.6911 17.5166 33.5865 16.5245 33.3963 15.5643Z" fill="#FFC107"/>
<path d="M5.12256 11.4777L10.1028 15.1301C11.4503 11.7937 14.7139 9.43815 18.533 9.43815C20.8515 9.43815 22.9607 10.3128 24.5667 11.7414L28.8542 7.45395C26.147 4.93087 22.5257 3.37488 18.533 3.37488C12.7108 3.37488 7.66156 6.66193 5.12256 11.4777Z" fill="#FF3D00"/>
<path d="M18.5329 33.6913C22.4483 33.6913 26.0059 32.1929 28.6957 29.7562L24.0043 25.7863C22.4312 26.9826 20.5091 27.6296 18.5329 27.628C14.5903 27.628 11.2426 25.114 9.98142 21.6057L5.03833 25.4141C7.54701 30.3231 12.6417 33.6913 18.5329 33.6913Z" fill="#4CAF50"/>
<path d="M33.3963 15.5643H32.1753V15.5014H18.533V21.5647H27.0996C26.5018 23.2445 25.4249 24.7124 24.002 25.787L24.0043 25.7855L28.6958 29.7554C28.3638 30.0571 33.6911 26.1121 33.6911 18.533C33.6911 17.5167 33.5866 16.5246 33.3963 15.5643Z" fill="#1976D2"/>
</svg>
