<svg width="25" height="31" viewBox="0 0 25 31" fill="none" xmlns="http://www.w3.org/2000/svg">
<path d="M22.0202 2.32229C20.6379 0.746758 18.1392 0.0712891 14.9426 0.0712891L5.66522 0.0712891C5.34895 0.0713008 5.04305 0.184136 4.80253 0.389508C4.56201 0.594879 4.40264 0.879316 4.35307 1.19168L0.490127 25.6914C0.413344 26.1745 0.787437 26.612 1.2771 26.612H7.00465L8.44308 17.4883L8.39844 17.774C8.50092 17.129 9.05248 16.6534 9.70563 16.6534H12.4273C17.7742 16.6534 21.9608 14.4816 23.1838 8.19924C23.2201 8.01343 23.2515 7.83259 23.2787 7.65591C23.1243 7.57416 23.1243 7.57416 23.2787 7.65591C23.6429 5.33388 23.2762 3.75328 22.0202 2.32229" fill="#27346A"/>
<path d="M10.6348 6.81943C10.7914 6.74487 10.9626 6.70624 11.1361 6.70634L18.4094 6.70634C19.2707 6.70634 20.074 6.76239 20.8081 6.88054C21.0135 6.91329 21.2179 6.9524 21.4209 6.9978C21.7086 7.06129 21.993 7.13899 22.273 7.23063C22.6339 7.35116 22.97 7.49153 23.2789 7.65591C23.643 5.33298 23.2763 3.75328 22.0203 2.32229C20.6373 0.746758 18.1393 0.0712891 14.9427 0.0712891L5.66455 0.0712891C5.0113 0.0712891 4.45557 0.546865 4.35319 1.19168L0.49025 25.6905C0.413467 26.1744 0.787559 26.6113 1.27643 26.6113H7.00477L9.98908 7.68646C10.0184 7.50045 10.0925 7.32434 10.205 7.17331C10.3175 7.02228 10.465 6.90083 10.6348 6.81943V6.81943Z" fill="#27346A"/>
<path d="M21.9748 8.95434C20.7518 15.2358 16.5653 17.4085 11.2184 17.4085H8.49587C7.84272 17.4085 7.29106 17.8841 7.18957 18.5291L5.40006 29.8734C5.3332 30.2962 5.66017 30.6793 6.08793 30.6793H10.9161C11.1927 30.6792 11.4602 30.5805 11.6704 30.4008C11.8807 30.2211 12.02 29.9723 12.0632 29.6992L12.1102 29.4531L13.0202 23.6859L13.0788 23.3672C13.122 23.094 13.2613 22.8452 13.4715 22.6656C13.6818 22.4859 13.9492 22.3871 14.2258 22.387H14.9484C19.6255 22.387 23.2877 20.4869 24.3579 14.9915C24.8046 12.695 24.5735 10.7776 23.3918 9.43081C23.0334 9.02289 22.5883 8.686 22.0697 8.41101C22.0417 8.58858 22.0112 8.76854 21.9748 8.95434V8.95434Z" fill="#2790C3"/>
<path d="M22.142 7.96836C21.9513 7.91268 21.7589 7.86338 21.5649 7.82055C21.3618 7.77589 21.1574 7.73706 20.9521 7.70409C20.2172 7.58514 19.4145 7.52899 18.5524 7.52899L11.28 7.52899C11.1064 7.5286 10.935 7.56757 10.7787 7.64298C10.6087 7.72413 10.461 7.8455 10.3485 7.99658C10.236 8.14765 10.162 8.32388 10.1329 8.51001L8.58712 18.311L8.54248 18.5967C8.64416 17.9518 9.19573 17.4761 9.84898 17.4761H12.5715C17.9183 17.4761 22.1048 15.3044 23.3278 9.02199C23.3642 8.83618 23.3948 8.65613 23.4228 8.47866C23.1131 8.31517 22.7779 8.17391 22.4169 8.05417C22.3258 8.02397 22.2342 7.99537 22.1421 7.96836" fill="#1F264F"/>
</svg>
