<svg width="17" height="14" viewBox="0 0 17 14" fill="none" xmlns="http://www.w3.org/2000/svg">
<path d="M15.9355 1.825C16.0395 1.63251 16.1252 1.43069 16.1914 1.22219C16.2221 1.12547 16.2227 1.02173 16.1932 0.924654C16.1637 0.827579 16.1054 0.741739 16.0261 0.678467C15.9468 0.615196 15.8502 0.577468 15.7489 0.570265C15.6477 0.563063 15.5467 0.586724 15.4592 0.638125C14.9789 0.923507 14.4588 1.13613 13.9161 1.26906C13.2573 0.674475 12.4017 0.344852 11.5142 0.34375C11.0321 0.34412 10.555 0.441843 10.1115 0.631058C9.66809 0.820272 9.2674 1.09708 8.93351 1.4449C8.59961 1.79271 8.33939 2.20436 8.16843 2.65518C7.99748 3.10599 7.91931 3.58668 7.93862 4.06844C5.8302 3.80301 3.90488 2.73611 2.56206 1.08906C2.51061 1.02666 2.44486 0.977607 2.3704 0.946056C2.29593 0.914505 2.21495 0.901394 2.13433 0.907836C2.05372 0.914278 1.97585 0.940083 1.90734 0.983059C1.83883 1.02603 1.7817 1.08491 1.74081 1.15469C1.43334 1.68243 1.26621 2.28016 1.25538 2.89085C1.24454 3.50153 1.39037 4.10481 1.67894 4.64313C1.60816 4.65507 1.54017 4.67985 1.47831 4.71625C1.40251 4.76459 1.3401 4.83123 1.29685 4.91004C1.25359 4.98885 1.23088 5.07729 1.23081 5.16719C1.23081 6.23125 1.70425 7.20813 2.46738 7.87188L2.43456 7.90469C2.37695 7.96986 2.33731 8.04892 2.31956 8.13408C2.3018 8.21923 2.30654 8.30755 2.33331 8.39031C2.49244 8.88674 2.75814 9.3424 3.11182 9.72538C3.46549 10.1084 3.8986 10.4094 4.38081 10.6075C3.39043 11.0906 2.28209 11.279 1.18769 11.1503C1.07519 11.1388 0.962071 11.165 0.866048 11.2247C0.770025 11.2845 0.696524 11.3743 0.657063 11.4803C0.619167 11.5871 0.618456 11.7035 0.655044 11.8107C0.691632 11.9179 0.763372 12.0096 0.858625 12.0709C2.34645 13.0258 4.0773 13.5331 5.84519 13.5325C11.6389 13.5325 15.1021 8.82625 15.1021 4.27656L15.1011 4.12281C15.6626 3.68445 16.1503 3.15906 16.5458 2.56656C16.6057 2.47699 16.6351 2.37052 16.6298 2.2629C16.6245 2.15529 16.5846 2.05226 16.5161 1.96907C16.4477 1.88587 16.3542 1.82694 16.2496 1.80099C16.1451 1.77505 16.0349 1.78346 15.9355 1.825V1.825ZM14.2996 3.47031C14.2315 3.51923 14.1768 3.58442 14.1405 3.65991C14.1041 3.73541 14.0873 3.81881 14.0914 3.9025C14.0971 4.02625 14.0999 4.15188 14.0999 4.27563C14.0999 8.33313 11.0127 12.5303 5.84612 12.5303C4.92466 12.5307 4.0097 12.3761 3.13956 12.0728C4.18168 11.8731 5.16066 11.4262 5.99425 10.7697C6.07539 10.7057 6.1348 10.6182 6.16434 10.5192C6.19388 10.4202 6.19211 10.3145 6.15928 10.2165C6.12645 10.1185 6.06415 10.033 5.98092 9.97181C5.89768 9.91058 5.79756 9.87655 5.69425 9.87438C5.29002 9.86665 4.89327 9.76404 4.53599 9.57482C4.1787 9.38559 3.87089 9.11504 3.63737 8.785C3.87456 8.76906 4.10706 8.72969 4.333 8.66875C4.44235 8.63948 4.53855 8.57402 4.60591 8.48305C4.67327 8.39207 4.70781 8.28096 4.70389 8.16783C4.69998 8.0547 4.65784 7.94624 4.58435 7.86014C4.51086 7.77404 4.41036 7.71539 4.29925 7.69375C3.84271 7.60088 3.42001 7.38564 3.07636 7.07106C2.73272 6.75648 2.48106 6.35439 2.34831 5.90781C2.59769 5.97063 2.85363 6.00719 3.10956 6.01563C3.32988 6.01469 3.53425 5.87969 3.60269 5.66781C3.67113 5.45594 3.5905 5.2225 3.40394 5.09875C2.96282 4.80485 2.62317 4.38195 2.43139 3.8878C2.2396 3.39365 2.20502 2.85235 2.33238 2.33781C3.96084 4.00873 6.15977 5.00374 8.48987 5.12406C8.65487 5.125 8.79925 5.06594 8.89956 4.945C8.99987 4.82406 9.03831 4.66375 9.00269 4.51C8.87447 3.95781 8.93182 3.37876 9.16586 2.86245C9.39991 2.34614 9.7976 1.92136 10.2974 1.65385C10.7972 1.38634 11.3712 1.29102 11.9306 1.38263C12.4901 1.47424 13.0037 1.74768 13.3921 2.16063C13.4503 2.22273 13.5233 2.26899 13.6043 2.29507C13.6854 2.32115 13.7717 2.32618 13.8552 2.30969C14.0099 2.27875 14.1627 2.24313 14.3136 2.20188C14.2456 2.25281 14.1749 2.30007 14.1017 2.34344C14.0045 2.40299 13.9305 2.49388 13.8919 2.60114C13.8532 2.7084 13.8523 2.82562 13.8892 2.93349C13.9261 3.04136 13.9986 3.13343 14.0949 3.19455C14.1911 3.25566 14.3053 3.28216 14.4186 3.26969L14.5892 3.24813C14.4953 3.32552 14.3987 3.39963 14.2996 3.47031V3.47031Z" fill="#EE4F3C"/>
</svg>
